<svg xmlns="http://www.w3.org/2000/svg" width="1641" height="514" viewBox="16.0 -4.0 1641.0 514.2" font-family="Segoe UI, Helvetica, Arial, sans-serif">
<rect x="16.0" y="-4.0" width="1641.0" height="514.2" fill="#ffffff"/>
<text x="40.0" y="43.0" font-size="28" font-family="Segoe UI, Helvetica, Arial, sans-serif" fill="#c41e3a" text-anchor="start">MXFP8 — 32 elements share one scale</text>
<text x="40.0" y="71.5" font-size="14" font-family="Segoe UI, Helvetica, Arial, sans-serif" fill="#868e96" text-anchor="start">Microscaling FP8: an e4m3 value per element + one e8m0 power-of-two scale per 32-element block.</text>
<text x="60.0" y="123.1" font-size="16" font-family="Segoe UI, Helvetica, Arial, sans-serif" fill="#1971c2" text-anchor="start">One row of the activation tensor  (K elements)</text>
<rect x="60.0" y="150.0" width="21.0" height="21.0" rx="12" fill="#a5d8ff" stroke="#1e1e1e" stroke-width="1"/>
<rect x="84.0" y="150.0" width="21.0" height="21.0" rx="12" fill="#a5d8ff" stroke="#1e1e1e" stroke-width="1"/>
<rect x="108.0" y="150.0" width="21.0" height="21.0" rx="12" fill="#a5d8ff" stroke="#1e1e1e" stroke-width="1"/>
<rect x="132.0" y="150.0" width="21.0" height="21.0" rx="12" fill="#a5d8ff" stroke="#1e1e1e" stroke-width="1"/>
<rect x="156.0" y="150.0" width="21.0" height="21.0" rx="12" fill="#a5d8ff" stroke="#1e1e1e" stroke-width="1"/>
<rect x="180.0" y="150.0" width="21.0" height="21.0" rx="12" fill="#a5d8ff" stroke="#1e1e1e" stroke-width="1"/>
<rect x="204.0" y="150.0" width="21.0" height="21.0" rx="12" fill="#a5d8ff" stroke="#1e1e1e" stroke-width="1"/>
<rect x="228.0" y="150.0" width="21.0" height="21.0" rx="12" fill="#a5d8ff" stroke="#1e1e1e" stroke-width="1"/>
<rect x="252.0" y="150.0" width="21.0" height="21.0" rx="12" fill="#a5d8ff" stroke="#1e1e1e" stroke-width="1"/>
<rect x="276.0" y="150.0" width="21.0" height="21.0" rx="12" fill="#a5d8ff" stroke="#1e1e1e" stroke-width="1"/>
<rect x="300.0" y="150.0" width="21.0" height="21.0" rx="12" fill="#a5d8ff" stroke="#1e1e1e" stroke-width="1"/>
<rect x="324.0" y="150.0" width="21.0" height="21.0" rx="12" fill="#a5d8ff" stroke="#1e1e1e" stroke-width="1"/>
<rect x="348.0" y="150.0" width="21.0" height="21.0" rx="12" fill="#a5d8ff" stroke="#1e1e1e" stroke-width="1"/>
<rect x="372.0" y="150.0" width="21.0" height="21.0" rx="12" fill="#a5d8ff" stroke="#1e1e1e" stroke-width="1"/>
<rect x="396.0" y="150.0" width="21.0" height="21.0" rx="12" fill="#a5d8ff" stroke="#1e1e1e" stroke-width="1"/>
<rect x="420.0" y="150.0" width="21.0" height="21.0" rx="12" fill="#a5d8ff" stroke="#1e1e1e" stroke-width="1"/>
<rect x="444.0" y="150.0" width="21.0" height="21.0" rx="12" fill="#a5d8ff" stroke="#1e1e1e" stroke-width="1"/>
<rect x="468.0" y="150.0" width="21.0" height="21.0" rx="12" fill="#a5d8ff" stroke="#1e1e1e" stroke-width="1"/>
<rect x="492.0" y="150.0" width="21.0" height="21.0" rx="12" fill="#a5d8ff" stroke="#1e1e1e" stroke-width="1"/>
<rect x="516.0" y="150.0" width="21.0" height="21.0" rx="12" fill="#a5d8ff" stroke="#1e1e1e" stroke-width="1"/>
<rect x="540.0" y="150.0" width="21.0" height="21.0" rx="12" fill="#a5d8ff" stroke="#1e1e1e" stroke-width="1"/>
<rect x="564.0" y="150.0" width="21.0" height="21.0" rx="12" fill="#a5d8ff" stroke="#1e1e1e" stroke-width="1"/>
<rect x="588.0" y="150.0" width="21.0" height="21.0" rx="12" fill="#a5d8ff" stroke="#1e1e1e" stroke-width="1"/>
<rect x="612.0" y="150.0" width="21.0" height="21.0" rx="12" fill="#a5d8ff" stroke="#1e1e1e" stroke-width="1"/>
<rect x="636.0" y="150.0" width="21.0" height="21.0" rx="12" fill="#a5d8ff" stroke="#1e1e1e" stroke-width="1"/>
<rect x="660.0" y="150.0" width="21.0" height="21.0" rx="12" fill="#a5d8ff" stroke="#1e1e1e" stroke-width="1"/>
<rect x="684.0" y="150.0" width="21.0" height="21.0" rx="12" fill="#a5d8ff" stroke="#1e1e1e" stroke-width="1"/>
<rect x="708.0" y="150.0" width="21.0" height="21.0" rx="12" fill="#a5d8ff" stroke="#1e1e1e" stroke-width="1"/>
<rect x="732.0" y="150.0" width="21.0" height="21.0" rx="12" fill="#a5d8ff" stroke="#1e1e1e" stroke-width="1"/>
<rect x="756.0" y="150.0" width="21.0" height="21.0" rx="12" fill="#a5d8ff" stroke="#1e1e1e" stroke-width="1"/>
<rect x="780.0" y="150.0" width="21.0" height="21.0" rx="12" fill="#a5d8ff" stroke="#1e1e1e" stroke-width="1"/>
<rect x="804.0" y="150.0" width="21.0" height="21.0" rx="12" fill="#a5d8ff" stroke="#1e1e1e" stroke-width="1"/>
<polyline points="60.0,142.0 825.0,142.0" fill="none" stroke="#868e96" stroke-width="2" stroke-linecap="round" stroke-linejoin="round"/>
<text x="444.0" y="130.5" font-size="13" font-family="Segoe UI, Helvetica, Arial, sans-serif" fill="#868e96" text-anchor="middle">32 × e4m3 (1 byte each)</text>
<rect x="324.0" y="200.0" width="200.0" height="40.0" rx="12" fill="#ffec99" stroke="#e8590c" stroke-width="2"/>
<text x="424.0" y="222.7" font-size="14" font-family="Consolas, 'Courier New', monospace" fill="#1e1e1e" text-anchor="middle">1 × e8m0 scale</text>
<polyline points="444.0,180.0 444.0,198.0" fill="none" stroke="#e8590c" stroke-width="2" stroke-linecap="round" stroke-linejoin="round"/>
<line x1="444.0" y1="198.0" x2="449.2" y2="188.3" stroke="#e8590c" stroke-width="2" stroke-linecap="round"/>
<line x1="444.0" y1="198.0" x2="438.8" y2="188.3" stroke="#e8590c" stroke-width="2" stroke-linecap="round"/>
<rect x="868.0" y="150.0" width="21.0" height="21.0" rx="12" fill="#a5d8ff" stroke="#1e1e1e" stroke-width="1"/>
<rect x="892.0" y="150.0" width="21.0" height="21.0" rx="12" fill="#a5d8ff" stroke="#1e1e1e" stroke-width="1"/>
<rect x="916.0" y="150.0" width="21.0" height="21.0" rx="12" fill="#a5d8ff" stroke="#1e1e1e" stroke-width="1"/>
<rect x="940.0" y="150.0" width="21.0" height="21.0" rx="12" fill="#a5d8ff" stroke="#1e1e1e" stroke-width="1"/>
<rect x="964.0" y="150.0" width="21.0" height="21.0" rx="12" fill="#a5d8ff" stroke="#1e1e1e" stroke-width="1"/>
<rect x="988.0" y="150.0" width="21.0" height="21.0" rx="12" fill="#a5d8ff" stroke="#1e1e1e" stroke-width="1"/>
<rect x="1012.0" y="150.0" width="21.0" height="21.0" rx="12" fill="#a5d8ff" stroke="#1e1e1e" stroke-width="1"/>
<rect x="1036.0" y="150.0" width="21.0" height="21.0" rx="12" fill="#a5d8ff" stroke="#1e1e1e" stroke-width="1"/>
<rect x="1060.0" y="150.0" width="21.0" height="21.0" rx="12" fill="#a5d8ff" stroke="#1e1e1e" stroke-width="1"/>
<rect x="1084.0" y="150.0" width="21.0" height="21.0" rx="12" fill="#a5d8ff" stroke="#1e1e1e" stroke-width="1"/>
<rect x="1108.0" y="150.0" width="21.0" height="21.0" rx="12" fill="#a5d8ff" stroke="#1e1e1e" stroke-width="1"/>
<rect x="1132.0" y="150.0" width="21.0" height="21.0" rx="12" fill="#a5d8ff" stroke="#1e1e1e" stroke-width="1"/>
<rect x="1156.0" y="150.0" width="21.0" height="21.0" rx="12" fill="#a5d8ff" stroke="#1e1e1e" stroke-width="1"/>
<rect x="1180.0" y="150.0" width="21.0" height="21.0" rx="12" fill="#a5d8ff" stroke="#1e1e1e" stroke-width="1"/>
<rect x="1204.0" y="150.0" width="21.0" height="21.0" rx="12" fill="#a5d8ff" stroke="#1e1e1e" stroke-width="1"/>
<rect x="1228.0" y="150.0" width="21.0" height="21.0" rx="12" fill="#a5d8ff" stroke="#1e1e1e" stroke-width="1"/>
<rect x="1252.0" y="150.0" width="21.0" height="21.0" rx="12" fill="#a5d8ff" stroke="#1e1e1e" stroke-width="1"/>
<rect x="1276.0" y="150.0" width="21.0" height="21.0" rx="12" fill="#a5d8ff" stroke="#1e1e1e" stroke-width="1"/>
<rect x="1300.0" y="150.0" width="21.0" height="21.0" rx="12" fill="#a5d8ff" stroke="#1e1e1e" stroke-width="1"/>
<rect x="1324.0" y="150.0" width="21.0" height="21.0" rx="12" fill="#a5d8ff" stroke="#1e1e1e" stroke-width="1"/>
<rect x="1348.0" y="150.0" width="21.0" height="21.0" rx="12" fill="#a5d8ff" stroke="#1e1e1e" stroke-width="1"/>
<rect x="1372.0" y="150.0" width="21.0" height="21.0" rx="12" fill="#a5d8ff" stroke="#1e1e1e" stroke-width="1"/>
<rect x="1396.0" y="150.0" width="21.0" height="21.0" rx="12" fill="#a5d8ff" stroke="#1e1e1e" stroke-width="1"/>
<rect x="1420.0" y="150.0" width="21.0" height="21.0" rx="12" fill="#a5d8ff" stroke="#1e1e1e" stroke-width="1"/>
<rect x="1444.0" y="150.0" width="21.0" height="21.0" rx="12" fill="#a5d8ff" stroke="#1e1e1e" stroke-width="1"/>
<rect x="1468.0" y="150.0" width="21.0" height="21.0" rx="12" fill="#a5d8ff" stroke="#1e1e1e" stroke-width="1"/>
<rect x="1492.0" y="150.0" width="21.0" height="21.0" rx="12" fill="#a5d8ff" stroke="#1e1e1e" stroke-width="1"/>
<rect x="1516.0" y="150.0" width="21.0" height="21.0" rx="12" fill="#a5d8ff" stroke="#1e1e1e" stroke-width="1"/>
<rect x="1540.0" y="150.0" width="21.0" height="21.0" rx="12" fill="#a5d8ff" stroke="#1e1e1e" stroke-width="1"/>
<rect x="1564.0" y="150.0" width="21.0" height="21.0" rx="12" fill="#a5d8ff" stroke="#1e1e1e" stroke-width="1"/>
<rect x="1588.0" y="150.0" width="21.0" height="21.0" rx="12" fill="#a5d8ff" stroke="#1e1e1e" stroke-width="1"/>
<rect x="1612.0" y="150.0" width="21.0" height="21.0" rx="12" fill="#a5d8ff" stroke="#1e1e1e" stroke-width="1"/>
<polyline points="868.0,142.0 1633.0,142.0" fill="none" stroke="#868e96" stroke-width="2" stroke-linecap="round" stroke-linejoin="round"/>
<text x="1252.0" y="130.5" font-size="13" font-family="Segoe UI, Helvetica, Arial, sans-serif" fill="#868e96" text-anchor="middle">32 × e4m3 (1 byte each)</text>
<rect x="1132.0" y="200.0" width="200.0" height="40.0" rx="12" fill="#ffec99" stroke="#e8590c" stroke-width="2"/>
<text x="1232.0" y="222.7" font-size="14" font-family="Consolas, 'Courier New', monospace" fill="#1e1e1e" text-anchor="middle">1 × e8m0 scale</text>
<polyline points="1252.0,180.0 1252.0,198.0" fill="none" stroke="#e8590c" stroke-width="2" stroke-linecap="round" stroke-linejoin="round"/>
<line x1="1252.0" y1="198.0" x2="1257.2" y2="188.3" stroke="#e8590c" stroke-width="2" stroke-linecap="round"/>
<line x1="1252.0" y1="198.0" x2="1246.8" y2="188.3" stroke="#e8590c" stroke-width="2" stroke-linecap="round"/>
<text x="60.0" y="281.5" font-size="14" font-family="Segoe UI, Helvetica, Arial, sans-serif" fill="#868e96" text-anchor="start">→ block_size = 32   (offsets fed to the kernel must be multiples of 32)</text>
<text x="60.0" y="343.1" font-size="16" font-family="Segoe UI, Helvetica, Arial, sans-serif" fill="#1e1e1e" text-anchor="start">Whole tensor decomposes into two arrays:</text>
<rect x="60.0" y="370.0" width="250.0" height="80.0" rx="12" fill="#a5d8ff" stroke="#1e1e1e" stroke-width="2"/>
<text x="185.0" y="403.6" font-size="15" font-family="Consolas, 'Courier New', monospace" fill="#1e1e1e" text-anchor="middle">data  (M, K)</text>
<text x="185.0" y="422.3" font-size="15" font-family="Consolas, 'Courier New', monospace" fill="#1e1e1e" text-anchor="middle">float8_e4m3fn</text>
<text x="330.0" y="423.0" font-size="28" font-family="Segoe UI, Helvetica, Arial, sans-serif" fill="#1e1e1e" text-anchor="start">+</text>
<rect x="380.0" y="370.0" width="250.0" height="80.0" rx="12" fill="#ffec99" stroke="#1e1e1e" stroke-width="2"/>
<text x="505.0" y="403.6" font-size="15" font-family="Consolas, 'Courier New', monospace" fill="#1e1e1e" text-anchor="middle">scales  (M, K/32)</text>
<text x="505.0" y="422.3" font-size="15" font-family="Consolas, 'Courier New', monospace" fill="#1e1e1e" text-anchor="middle">e8m0  (uint8 view)</text>
<text x="60.0" y="480.7" font-size="13" font-family="Segoe UI, Helvetica, Arial, sans-serif" fill="#868e96" text-anchor="start">e4m3 = 1 sign · 4 exp · 3 mantissa, max 448.   e8m0 = 8-bit exponent only (a pure 2^k scale).</text>
</svg>