<svg xmlns="http://www.w3.org/2000/svg" width="893" height="638" viewBox="16.0 -4.0 892.7 638.0" font-family="Segoe UI, Helvetica, Arial, sans-serif">
<rect x="16.0" y="-4.0" width="892.7" height="638.0" fill="#ffffff"/>
<text x="40.0" y="43.0" font-size="28" font-family="Segoe UI, Helvetica, Arial, sans-serif" fill="#c41e3a" text-anchor="start">Optimization 3 — GROUP_M tile ordering for L2 reuse</text>
<text x="40.0" y="71.5" font-size="14" font-family="Segoe UI, Helvetica, Arial, sans-serif" fill="#868e96" text-anchor="start">Reorder program IDs so concurrently-running tiles share the same A rows / B columns in L2.</text>
<text x="80.0" y="123.1" font-size="16" font-family="Segoe UI, Helvetica, Arial, sans-serif" fill="#c41e3a" text-anchor="start">Naive: pid = row-major  (GROUP_M = 1)</text>
<rect x="80.0" y="145.0" width="42.0" height="42.0" rx="12" fill="#ffc9c9" stroke="#1e1e1e" stroke-width="1.5"/>
<text x="101.0" y="168.3" font-size="12" font-family="Segoe UI, Helvetica, Arial, sans-serif" fill="#1e1e1e" text-anchor="middle">0</text>
<rect x="126.0" y="145.0" width="42.0" height="42.0" rx="12" fill="#ffc9c9" stroke="#1e1e1e" stroke-width="1.5"/>
<text x="147.0" y="168.3" font-size="12" font-family="Segoe UI, Helvetica, Arial, sans-serif" fill="#1e1e1e" text-anchor="middle">1</text>
<rect x="172.0" y="145.0" width="42.0" height="42.0" rx="12" fill="#ffc9c9" stroke="#1e1e1e" stroke-width="1.5"/>
<text x="193.0" y="168.3" font-size="12" font-family="Segoe UI, Helvetica, Arial, sans-serif" fill="#1e1e1e" text-anchor="middle">2</text>
<rect x="218.0" y="145.0" width="42.0" height="42.0" rx="12" fill="#ffc9c9" stroke="#1e1e1e" stroke-width="1.5"/>
<text x="239.0" y="168.3" font-size="12" font-family="Segoe UI, Helvetica, Arial, sans-serif" fill="#1e1e1e" text-anchor="middle">3</text>
<rect x="264.0" y="145.0" width="42.0" height="42.0" rx="12" fill="#ffc9c9" stroke="#1e1e1e" stroke-width="1.5"/>
<text x="285.0" y="168.3" font-size="12" font-family="Segoe UI, Helvetica, Arial, sans-serif" fill="#1e1e1e" text-anchor="middle">4</text>
<rect x="310.0" y="145.0" width="42.0" height="42.0" rx="12" fill="#ffc9c9" stroke="#1e1e1e" stroke-width="1.5"/>
<text x="331.0" y="168.3" font-size="12" font-family="Segoe UI, Helvetica, Arial, sans-serif" fill="#1e1e1e" text-anchor="middle">5</text>
<rect x="80.0" y="191.0" width="42.0" height="42.0" rx="12" fill="#ffffff" stroke="#1e1e1e" stroke-width="1.5"/>
<text x="101.0" y="214.3" font-size="12" font-family="Segoe UI, Helvetica, Arial, sans-serif" fill="#1e1e1e" text-anchor="middle">6</text>
<rect x="126.0" y="191.0" width="42.0" height="42.0" rx="12" fill="#ffffff" stroke="#1e1e1e" stroke-width="1.5"/>
<text x="147.0" y="214.3" font-size="12" font-family="Segoe UI, Helvetica, Arial, sans-serif" fill="#1e1e1e" text-anchor="middle">7</text>
<rect x="172.0" y="191.0" width="42.0" height="42.0" rx="12" fill="#ffffff" stroke="#1e1e1e" stroke-width="1.5"/>
<text x="193.0" y="214.3" font-size="12" font-family="Segoe UI, Helvetica, Arial, sans-serif" fill="#1e1e1e" text-anchor="middle">8</text>
<rect x="218.0" y="191.0" width="42.0" height="42.0" rx="12" fill="#ffffff" stroke="#1e1e1e" stroke-width="1.5"/>
<text x="239.0" y="214.3" font-size="12" font-family="Segoe UI, Helvetica, Arial, sans-serif" fill="#1e1e1e" text-anchor="middle">9</text>
<rect x="264.0" y="191.0" width="42.0" height="42.0" rx="12" fill="#ffffff" stroke="#1e1e1e" stroke-width="1.5"/>
<text x="285.0" y="214.3" font-size="12" font-family="Segoe UI, Helvetica, Arial, sans-serif" fill="#1e1e1e" text-anchor="middle">10</text>
<rect x="310.0" y="191.0" width="42.0" height="42.0" rx="12" fill="#ffffff" stroke="#1e1e1e" stroke-width="1.5"/>
<text x="331.0" y="214.3" font-size="12" font-family="Segoe UI, Helvetica, Arial, sans-serif" fill="#1e1e1e" text-anchor="middle">11</text>
<rect x="80.0" y="237.0" width="42.0" height="42.0" rx="12" fill="#ffffff" stroke="#1e1e1e" stroke-width="1.5"/>
<text x="101.0" y="260.3" font-size="12" font-family="Segoe UI, Helvetica, Arial, sans-serif" fill="#1e1e1e" text-anchor="middle">12</text>
<rect x="126.0" y="237.0" width="42.0" height="42.0" rx="12" fill="#ffffff" stroke="#1e1e1e" stroke-width="1.5"/>
<text x="147.0" y="260.3" font-size="12" font-family="Segoe UI, Helvetica, Arial, sans-serif" fill="#1e1e1e" text-anchor="middle">13</text>
<rect x="172.0" y="237.0" width="42.0" height="42.0" rx="12" fill="#ffffff" stroke="#1e1e1e" stroke-width="1.5"/>
<text x="193.0" y="260.3" font-size="12" font-family="Segoe UI, Helvetica, Arial, sans-serif" fill="#1e1e1e" text-anchor="middle">14</text>
<rect x="218.0" y="237.0" width="42.0" height="42.0" rx="12" fill="#ffffff" stroke="#1e1e1e" stroke-width="1.5"/>
<text x="239.0" y="260.3" font-size="12" font-family="Segoe UI, Helvetica, Arial, sans-serif" fill="#1e1e1e" text-anchor="middle">15</text>
<rect x="264.0" y="237.0" width="42.0" height="42.0" rx="12" fill="#ffffff" stroke="#1e1e1e" stroke-width="1.5"/>
<text x="285.0" y="260.3" font-size="12" font-family="Segoe UI, Helvetica, Arial, sans-serif" fill="#1e1e1e" text-anchor="middle">16</text>
<rect x="310.0" y="237.0" width="42.0" height="42.0" rx="12" fill="#ffffff" stroke="#1e1e1e" stroke-width="1.5"/>
<text x="331.0" y="260.3" font-size="12" font-family="Segoe UI, Helvetica, Arial, sans-serif" fill="#1e1e1e" text-anchor="middle">17</text>
<rect x="80.0" y="283.0" width="42.0" height="42.0" rx="12" fill="#ffffff" stroke="#1e1e1e" stroke-width="1.5"/>
<text x="101.0" y="306.3" font-size="12" font-family="Segoe UI, Helvetica, Arial, sans-serif" fill="#1e1e1e" text-anchor="middle">18</text>
<rect x="126.0" y="283.0" width="42.0" height="42.0" rx="12" fill="#ffffff" stroke="#1e1e1e" stroke-width="1.5"/>
<text x="147.0" y="306.3" font-size="12" font-family="Segoe UI, Helvetica, Arial, sans-serif" fill="#1e1e1e" text-anchor="middle">19</text>
<rect x="172.0" y="283.0" width="42.0" height="42.0" rx="12" fill="#ffffff" stroke="#1e1e1e" stroke-width="1.5"/>
<text x="193.0" y="306.3" font-size="12" font-family="Segoe UI, Helvetica, Arial, sans-serif" fill="#1e1e1e" text-anchor="middle">20</text>
<rect x="218.0" y="283.0" width="42.0" height="42.0" rx="12" fill="#ffffff" stroke="#1e1e1e" stroke-width="1.5"/>
<text x="239.0" y="306.3" font-size="12" font-family="Segoe UI, Helvetica, Arial, sans-serif" fill="#1e1e1e" text-anchor="middle">21</text>
<rect x="264.0" y="283.0" width="42.0" height="42.0" rx="12" fill="#ffffff" stroke="#1e1e1e" stroke-width="1.5"/>
<text x="285.0" y="306.3" font-size="12" font-family="Segoe UI, Helvetica, Arial, sans-serif" fill="#1e1e1e" text-anchor="middle">22</text>
<rect x="310.0" y="283.0" width="42.0" height="42.0" rx="12" fill="#ffffff" stroke="#1e1e1e" stroke-width="1.5"/>
<text x="331.0" y="306.3" font-size="12" font-family="Segoe UI, Helvetica, Arial, sans-serif" fill="#1e1e1e" text-anchor="middle">23</text>
<rect x="80.0" y="329.0" width="42.0" height="42.0" rx="12" fill="#ffffff" stroke="#1e1e1e" stroke-width="1.5"/>
<text x="101.0" y="352.3" font-size="12" font-family="Segoe UI, Helvetica, Arial, sans-serif" fill="#1e1e1e" text-anchor="middle">24</text>
<rect x="126.0" y="329.0" width="42.0" height="42.0" rx="12" fill="#ffffff" stroke="#1e1e1e" stroke-width="1.5"/>
<text x="147.0" y="352.3" font-size="12" font-family="Segoe UI, Helvetica, Arial, sans-serif" fill="#1e1e1e" text-anchor="middle">25</text>
<rect x="172.0" y="329.0" width="42.0" height="42.0" rx="12" fill="#ffffff" stroke="#1e1e1e" stroke-width="1.5"/>
<text x="193.0" y="352.3" font-size="12" font-family="Segoe UI, Helvetica, Arial, sans-serif" fill="#1e1e1e" text-anchor="middle">26</text>
<rect x="218.0" y="329.0" width="42.0" height="42.0" rx="12" fill="#ffffff" stroke="#1e1e1e" stroke-width="1.5"/>
<text x="239.0" y="352.3" font-size="12" font-family="Segoe UI, Helvetica, Arial, sans-serif" fill="#1e1e1e" text-anchor="middle">27</text>
<rect x="264.0" y="329.0" width="42.0" height="42.0" rx="12" fill="#ffffff" stroke="#1e1e1e" stroke-width="1.5"/>
<text x="285.0" y="352.3" font-size="12" font-family="Segoe UI, Helvetica, Arial, sans-serif" fill="#1e1e1e" text-anchor="middle">28</text>
<rect x="310.0" y="329.0" width="42.0" height="42.0" rx="12" fill="#ffffff" stroke="#1e1e1e" stroke-width="1.5"/>
<text x="331.0" y="352.3" font-size="12" font-family="Segoe UI, Helvetica, Arial, sans-serif" fill="#1e1e1e" text-anchor="middle">29</text>
<rect x="80.0" y="375.0" width="42.0" height="42.0" rx="12" fill="#ffffff" stroke="#1e1e1e" stroke-width="1.5"/>
<text x="101.0" y="398.3" font-size="12" font-family="Segoe UI, Helvetica, Arial, sans-serif" fill="#1e1e1e" text-anchor="middle">30</text>
<rect x="126.0" y="375.0" width="42.0" height="42.0" rx="12" fill="#ffffff" stroke="#1e1e1e" stroke-width="1.5"/>
<text x="147.0" y="398.3" font-size="12" font-family="Segoe UI, Helvetica, Arial, sans-serif" fill="#1e1e1e" text-anchor="middle">31</text>
<rect x="172.0" y="375.0" width="42.0" height="42.0" rx="12" fill="#ffffff" stroke="#1e1e1e" stroke-width="1.5"/>
<text x="193.0" y="398.3" font-size="12" font-family="Segoe UI, Helvetica, Arial, sans-serif" fill="#1e1e1e" text-anchor="middle">32</text>
<rect x="218.0" y="375.0" width="42.0" height="42.0" rx="12" fill="#ffffff" stroke="#1e1e1e" stroke-width="1.5"/>
<text x="239.0" y="398.3" font-size="12" font-family="Segoe UI, Helvetica, Arial, sans-serif" fill="#1e1e1e" text-anchor="middle">33</text>
<rect x="264.0" y="375.0" width="42.0" height="42.0" rx="12" fill="#ffffff" stroke="#1e1e1e" stroke-width="1.5"/>
<text x="285.0" y="398.3" font-size="12" font-family="Segoe UI, Helvetica, Arial, sans-serif" fill="#1e1e1e" text-anchor="middle">34</text>
<rect x="310.0" y="375.0" width="42.0" height="42.0" rx="12" fill="#ffffff" stroke="#1e1e1e" stroke-width="1.5"/>
<text x="331.0" y="398.3" font-size="12" font-family="Segoe UI, Helvetica, Arial, sans-serif" fill="#1e1e1e" text-anchor="middle">35</text>
<text x="80.0" y="480.7" font-size="13" font-family="Segoe UI, Helvetica, Arial, sans-serif" fill="#868e96" text-anchor="start">First 6 tiles span one B-column strip;</text>
<text x="80.0" y="496.9" font-size="13" font-family="Segoe UI, Helvetica, Arial, sans-serif" fill="#868e96" text-anchor="start">little overlap in working set → L2 thrash.</text>
<text x="520.0" y="123.1" font-size="16" font-family="Segoe UI, Helvetica, Arial, sans-serif" fill="#2f9e44" text-anchor="start">GROUP_M = 3  super-block, column-first</text>
<rect x="520.0" y="145.0" width="42.0" height="42.0" rx="12" fill="#b2f2bb" stroke="#1e1e1e" stroke-width="1.5"/>
<text x="541.0" y="168.3" font-size="12" font-family="Segoe UI, Helvetica, Arial, sans-serif" fill="#1e1e1e" text-anchor="middle">0</text>
<rect x="566.0" y="145.0" width="42.0" height="42.0" rx="12" fill="#b2f2bb" stroke="#1e1e1e" stroke-width="1.5"/>
<text x="587.0" y="168.3" font-size="12" font-family="Segoe UI, Helvetica, Arial, sans-serif" fill="#1e1e1e" text-anchor="middle">3</text>
<rect x="612.0" y="145.0" width="42.0" height="42.0" rx="12" fill="#b2f2bb" stroke="#1e1e1e" stroke-width="1.5"/>
<text x="633.0" y="168.3" font-size="12" font-family="Segoe UI, Helvetica, Arial, sans-serif" fill="#1e1e1e" text-anchor="middle">6</text>
<rect x="658.0" y="145.0" width="42.0" height="42.0" rx="12" fill="#b2f2bb" stroke="#1e1e1e" stroke-width="1.5"/>
<text x="679.0" y="168.3" font-size="12" font-family="Segoe UI, Helvetica, Arial, sans-serif" fill="#1e1e1e" text-anchor="middle">9</text>
<rect x="704.0" y="145.0" width="42.0" height="42.0" rx="12" fill="#b2f2bb" stroke="#1e1e1e" stroke-width="1.5"/>
<text x="725.0" y="168.3" font-size="12" font-family="Segoe UI, Helvetica, Arial, sans-serif" fill="#1e1e1e" text-anchor="middle">12</text>
<rect x="750.0" y="145.0" width="42.0" height="42.0" rx="12" fill="#b2f2bb" stroke="#1e1e1e" stroke-width="1.5"/>
<text x="771.0" y="168.3" font-size="12" font-family="Segoe UI, Helvetica, Arial, sans-serif" fill="#1e1e1e" text-anchor="middle">15</text>
<rect x="520.0" y="191.0" width="42.0" height="42.0" rx="12" fill="#b2f2bb" stroke="#1e1e1e" stroke-width="1.5"/>
<text x="541.0" y="214.3" font-size="12" font-family="Segoe UI, Helvetica, Arial, sans-serif" fill="#1e1e1e" text-anchor="middle">1</text>
<rect x="566.0" y="191.0" width="42.0" height="42.0" rx="12" fill="#b2f2bb" stroke="#1e1e1e" stroke-width="1.5"/>
<text x="587.0" y="214.3" font-size="12" font-family="Segoe UI, Helvetica, Arial, sans-serif" fill="#1e1e1e" text-anchor="middle">4</text>
<rect x="612.0" y="191.0" width="42.0" height="42.0" rx="12" fill="#b2f2bb" stroke="#1e1e1e" stroke-width="1.5"/>
<text x="633.0" y="214.3" font-size="12" font-family="Segoe UI, Helvetica, Arial, sans-serif" fill="#1e1e1e" text-anchor="middle">7</text>
<rect x="658.0" y="191.0" width="42.0" height="42.0" rx="12" fill="#b2f2bb" stroke="#1e1e1e" stroke-width="1.5"/>
<text x="679.0" y="214.3" font-size="12" font-family="Segoe UI, Helvetica, Arial, sans-serif" fill="#1e1e1e" text-anchor="middle">10</text>
<rect x="704.0" y="191.0" width="42.0" height="42.0" rx="12" fill="#b2f2bb" stroke="#1e1e1e" stroke-width="1.5"/>
<text x="725.0" y="214.3" font-size="12" font-family="Segoe UI, Helvetica, Arial, sans-serif" fill="#1e1e1e" text-anchor="middle">13</text>
<rect x="750.0" y="191.0" width="42.0" height="42.0" rx="12" fill="#b2f2bb" stroke="#1e1e1e" stroke-width="1.5"/>
<text x="771.0" y="214.3" font-size="12" font-family="Segoe UI, Helvetica, Arial, sans-serif" fill="#1e1e1e" text-anchor="middle">16</text>
<rect x="520.0" y="237.0" width="42.0" height="42.0" rx="12" fill="#b2f2bb" stroke="#1e1e1e" stroke-width="1.5"/>
<text x="541.0" y="260.3" font-size="12" font-family="Segoe UI, Helvetica, Arial, sans-serif" fill="#1e1e1e" text-anchor="middle">2</text>
<rect x="566.0" y="237.0" width="42.0" height="42.0" rx="12" fill="#b2f2bb" stroke="#1e1e1e" stroke-width="1.5"/>
<text x="587.0" y="260.3" font-size="12" font-family="Segoe UI, Helvetica, Arial, sans-serif" fill="#1e1e1e" text-anchor="middle">5</text>
<rect x="612.0" y="237.0" width="42.0" height="42.0" rx="12" fill="#b2f2bb" stroke="#1e1e1e" stroke-width="1.5"/>
<text x="633.0" y="260.3" font-size="12" font-family="Segoe UI, Helvetica, Arial, sans-serif" fill="#1e1e1e" text-anchor="middle">8</text>
<rect x="658.0" y="237.0" width="42.0" height="42.0" rx="12" fill="#b2f2bb" stroke="#1e1e1e" stroke-width="1.5"/>
<text x="679.0" y="260.3" font-size="12" font-family="Segoe UI, Helvetica, Arial, sans-serif" fill="#1e1e1e" text-anchor="middle">11</text>
<rect x="704.0" y="237.0" width="42.0" height="42.0" rx="12" fill="#b2f2bb" stroke="#1e1e1e" stroke-width="1.5"/>
<text x="725.0" y="260.3" font-size="12" font-family="Segoe UI, Helvetica, Arial, sans-serif" fill="#1e1e1e" text-anchor="middle">14</text>
<rect x="750.0" y="237.0" width="42.0" height="42.0" rx="12" fill="#b2f2bb" stroke="#1e1e1e" stroke-width="1.5"/>
<text x="771.0" y="260.3" font-size="12" font-family="Segoe UI, Helvetica, Arial, sans-serif" fill="#1e1e1e" text-anchor="middle">17</text>
<rect x="520.0" y="283.0" width="42.0" height="42.0" rx="12" fill="#ffffff" stroke="#1e1e1e" stroke-width="1.5"/>
<text x="541.0" y="306.3" font-size="12" font-family="Segoe UI, Helvetica, Arial, sans-serif" fill="#1e1e1e" text-anchor="middle">18</text>
<rect x="566.0" y="283.0" width="42.0" height="42.0" rx="12" fill="#ffffff" stroke="#1e1e1e" stroke-width="1.5"/>
<text x="587.0" y="306.3" font-size="12" font-family="Segoe UI, Helvetica, Arial, sans-serif" fill="#1e1e1e" text-anchor="middle">21</text>
<rect x="612.0" y="283.0" width="42.0" height="42.0" rx="12" fill="#ffffff" stroke="#1e1e1e" stroke-width="1.5"/>
<text x="633.0" y="306.3" font-size="12" font-family="Segoe UI, Helvetica, Arial, sans-serif" fill="#1e1e1e" text-anchor="middle">24</text>
<rect x="658.0" y="283.0" width="42.0" height="42.0" rx="12" fill="#ffffff" stroke="#1e1e1e" stroke-width="1.5"/>
<text x="679.0" y="306.3" font-size="12" font-family="Segoe UI, Helvetica, Arial, sans-serif" fill="#1e1e1e" text-anchor="middle">27</text>
<rect x="704.0" y="283.0" width="42.0" height="42.0" rx="12" fill="#ffffff" stroke="#1e1e1e" stroke-width="1.5"/>
<text x="725.0" y="306.3" font-size="12" font-family="Segoe UI, Helvetica, Arial, sans-serif" fill="#1e1e1e" text-anchor="middle">30</text>
<rect x="750.0" y="283.0" width="42.0" height="42.0" rx="12" fill="#ffffff" stroke="#1e1e1e" stroke-width="1.5"/>
<text x="771.0" y="306.3" font-size="12" font-family="Segoe UI, Helvetica, Arial, sans-serif" fill="#1e1e1e" text-anchor="middle">33</text>
<rect x="520.0" y="329.0" width="42.0" height="42.0" rx="12" fill="#ffffff" stroke="#1e1e1e" stroke-width="1.5"/>
<text x="541.0" y="352.3" font-size="12" font-family="Segoe UI, Helvetica, Arial, sans-serif" fill="#1e1e1e" text-anchor="middle">19</text>
<rect x="566.0" y="329.0" width="42.0" height="42.0" rx="12" fill="#ffffff" stroke="#1e1e1e" stroke-width="1.5"/>
<text x="587.0" y="352.3" font-size="12" font-family="Segoe UI, Helvetica, Arial, sans-serif" fill="#1e1e1e" text-anchor="middle">22</text>
<rect x="612.0" y="329.0" width="42.0" height="42.0" rx="12" fill="#ffffff" stroke="#1e1e1e" stroke-width="1.5"/>
<text x="633.0" y="352.3" font-size="12" font-family="Segoe UI, Helvetica, Arial, sans-serif" fill="#1e1e1e" text-anchor="middle">25</text>
<rect x="658.0" y="329.0" width="42.0" height="42.0" rx="12" fill="#ffffff" stroke="#1e1e1e" stroke-width="1.5"/>
<text x="679.0" y="352.3" font-size="12" font-family="Segoe UI, Helvetica, Arial, sans-serif" fill="#1e1e1e" text-anchor="middle">28</text>
<rect x="704.0" y="329.0" width="42.0" height="42.0" rx="12" fill="#ffffff" stroke="#1e1e1e" stroke-width="1.5"/>
<text x="725.0" y="352.3" font-size="12" font-family="Segoe UI, Helvetica, Arial, sans-serif" fill="#1e1e1e" text-anchor="middle">31</text>
<rect x="750.0" y="329.0" width="42.0" height="42.0" rx="12" fill="#ffffff" stroke="#1e1e1e" stroke-width="1.5"/>
<text x="771.0" y="352.3" font-size="12" font-family="Segoe UI, Helvetica, Arial, sans-serif" fill="#1e1e1e" text-anchor="middle">34</text>
<rect x="520.0" y="375.0" width="42.0" height="42.0" rx="12" fill="#ffffff" stroke="#1e1e1e" stroke-width="1.5"/>
<text x="541.0" y="398.3" font-size="12" font-family="Segoe UI, Helvetica, Arial, sans-serif" fill="#1e1e1e" text-anchor="middle">20</text>
<rect x="566.0" y="375.0" width="42.0" height="42.0" rx="12" fill="#ffffff" stroke="#1e1e1e" stroke-width="1.5"/>
<text x="587.0" y="398.3" font-size="12" font-family="Segoe UI, Helvetica, Arial, sans-serif" fill="#1e1e1e" text-anchor="middle">23</text>
<rect x="612.0" y="375.0" width="42.0" height="42.0" rx="12" fill="#ffffff" stroke="#1e1e1e" stroke-width="1.5"/>
<text x="633.0" y="398.3" font-size="12" font-family="Segoe UI, Helvetica, Arial, sans-serif" fill="#1e1e1e" text-anchor="middle">26</text>
<rect x="658.0" y="375.0" width="42.0" height="42.0" rx="12" fill="#ffffff" stroke="#1e1e1e" stroke-width="1.5"/>
<text x="679.0" y="398.3" font-size="12" font-family="Segoe UI, Helvetica, Arial, sans-serif" fill="#1e1e1e" text-anchor="middle">29</text>
<rect x="704.0" y="375.0" width="42.0" height="42.0" rx="12" fill="#ffffff" stroke="#1e1e1e" stroke-width="1.5"/>
<text x="725.0" y="398.3" font-size="12" font-family="Segoe UI, Helvetica, Arial, sans-serif" fill="#1e1e1e" text-anchor="middle">32</text>
<rect x="750.0" y="375.0" width="42.0" height="42.0" rx="12" fill="#ffffff" stroke="#1e1e1e" stroke-width="1.5"/>
<text x="771.0" y="398.3" font-size="12" font-family="Segoe UI, Helvetica, Arial, sans-serif" fill="#1e1e1e" text-anchor="middle">35</text>
<text x="520.0" y="480.7" font-size="13" font-family="Segoe UI, Helvetica, Arial, sans-serif" fill="#868e96" text-anchor="start">First 18 tiles form a 3×6 block → A rows AND B cols</text>
<text x="520.0" y="496.9" font-size="13" font-family="Segoe UI, Helvetica, Arial, sans-serif" fill="#868e96" text-anchor="start">re-hit from L2 across the block.</text>
<rect x="360.0" y="560.0" width="420.0" height="50.0" rx="12" fill="#e9ecef" stroke="#1e1e1e" stroke-width="2"/>
<text x="570.0" y="587.7" font-size="14" font-family="Consolas, 'Courier New', monospace" fill="#1e1e1e" text-anchor="middle">_xcd_swizzle → _pid_grid(GROUP_M)  reshapes the launch grid</text>
</svg>