<svg xmlns="http://www.w3.org/2000/svg" width="1068" height="532" viewBox="16.0 -4.0 1068.0 532.0" font-family="Segoe UI, Helvetica, Arial, sans-serif">
<rect x="16.0" y="-4.0" width="1068.0" height="532.0" fill="#ffffff"/>
<text x="40.0" y="43.0" font-size="28" font-family="Segoe UI, Helvetica, Arial, sans-serif" fill="#c41e3a" text-anchor="start">L1 — Sync-free routing build  (+14% vs naive)</text>
<text x="40.0" y="71.5" font-size="14" font-family="Segoe UI, Helvetica, Arial, sans-serif" fill="#868e96" text-anchor="start">Replace the host op-chain with one Triton launch. Biggest win on small / many-expert shapes.</text>
<text x="60.0" y="118.1" font-size="16" font-family="Segoe UI, Helvetica, Arial, sans-serif" fill="#c41e3a" text-anchor="start">BEFORE · host op chain</text>
<rect x="60.0" y="140.0" width="110.0" height="40.0" rx="12" fill="#ffc9c9" stroke="#1e1e1e" stroke-width="2"/>
<text x="115.0" y="162.7" font-size="14" font-family="Consolas, 'Courier New', monospace" fill="#1e1e1e" text-anchor="middle">cat</text>
<polyline points="170.0,160.0 190.0,160.0" fill="none" stroke="#868e96" stroke-width="2" stroke-linecap="round" stroke-linejoin="round"/>
<line x1="190.0" y1="160.0" x2="180.3" y2="154.8" stroke="#868e96" stroke-width="2" stroke-linecap="round"/>
<line x1="190.0" y1="160.0" x2="180.3" y2="165.2" stroke="#868e96" stroke-width="2" stroke-linecap="round"/>
<rect x="190.0" y="140.0" width="110.0" height="40.0" rx="12" fill="#ffc9c9" stroke="#1e1e1e" stroke-width="2"/>
<text x="245.0" y="162.7" font-size="14" font-family="Consolas, 'Courier New', monospace" fill="#1e1e1e" text-anchor="middle">diff</text>
<polyline points="300.0,160.0 320.0,160.0" fill="none" stroke="#868e96" stroke-width="2" stroke-linecap="round" stroke-linejoin="round"/>
<line x1="320.0" y1="160.0" x2="310.3" y2="154.8" stroke="#868e96" stroke-width="2" stroke-linecap="round"/>
<line x1="320.0" y1="160.0" x2="310.3" y2="165.2" stroke="#868e96" stroke-width="2" stroke-linecap="round"/>
<rect x="320.0" y="140.0" width="110.0" height="40.0" rx="12" fill="#ffc9c9" stroke="#1e1e1e" stroke-width="2"/>
<text x="375.0" y="162.7" font-size="14" font-family="Consolas, 'Courier New', monospace" fill="#1e1e1e" text-anchor="middle">cumsum</text>
<polyline points="430.0,160.0 450.0,160.0" fill="none" stroke="#868e96" stroke-width="2" stroke-linecap="round" stroke-linejoin="round"/>
<line x1="450.0" y1="160.0" x2="440.3" y2="154.8" stroke="#868e96" stroke-width="2" stroke-linecap="round"/>
<line x1="450.0" y1="160.0" x2="440.3" y2="165.2" stroke="#868e96" stroke-width="2" stroke-linecap="round"/>
<rect x="450.0" y="140.0" width="110.0" height="40.0" rx="12" fill="#ffc9c9" stroke="#1e1e1e" stroke-width="2"/>
<text x="505.0" y="162.7" font-size="14" font-family="Consolas, 'Courier New', monospace" fill="#1e1e1e" text-anchor="middle">arange</text>
<rect x="60.0" y="210.0" width="110.0" height="40.0" rx="12" fill="#ffc9c9" stroke="#1e1e1e" stroke-width="2"/>
<text x="115.0" y="232.7" font-size="14" font-family="Consolas, 'Courier New', monospace" fill="#1e1e1e" text-anchor="middle">searchsorted</text>
<polyline points="170.0,230.0 190.0,230.0" fill="none" stroke="#868e96" stroke-width="2" stroke-linecap="round" stroke-linejoin="round"/>
<line x1="190.0" y1="230.0" x2="180.3" y2="224.8" stroke="#868e96" stroke-width="2" stroke-linecap="round"/>
<line x1="190.0" y1="230.0" x2="180.3" y2="235.2" stroke="#868e96" stroke-width="2" stroke-linecap="round"/>
<rect x="190.0" y="210.0" width="110.0" height="40.0" rx="12" fill="#ffc9c9" stroke="#1e1e1e" stroke-width="2"/>
<text x="245.0" y="232.7" font-size="14" font-family="Consolas, 'Courier New', monospace" fill="#1e1e1e" text-anchor="middle">clamp</text>
<polyline points="300.0,230.0 320.0,230.0" fill="none" stroke="#868e96" stroke-width="2" stroke-linecap="round" stroke-linejoin="round"/>
<line x1="320.0" y1="230.0" x2="310.3" y2="224.8" stroke="#868e96" stroke-width="2" stroke-linecap="round"/>
<line x1="320.0" y1="230.0" x2="310.3" y2="235.2" stroke="#868e96" stroke-width="2" stroke-linecap="round"/>
<rect x="320.0" y="210.0" width="110.0" height="40.0" rx="12" fill="#ffc9c9" stroke="#1e1e1e" stroke-width="2"/>
<text x="375.0" y="232.7" font-size="14" font-family="Consolas, 'Courier New', monospace" fill="#1e1e1e" text-anchor="middle">shift</text>
<polyline points="430.0,230.0 450.0,230.0" fill="none" stroke="#868e96" stroke-width="2" stroke-linecap="round" stroke-linejoin="round"/>
<line x1="450.0" y1="230.0" x2="440.3" y2="224.8" stroke="#868e96" stroke-width="2" stroke-linecap="round"/>
<line x1="450.0" y1="230.0" x2="440.3" y2="235.2" stroke="#868e96" stroke-width="2" stroke-linecap="round"/>
<rect x="450.0" y="210.0" width="110.0" height="40.0" rx="12" fill="#ffc9c9" stroke="#1e1e1e" stroke-width="2"/>
<text x="505.0" y="232.7" font-size="14" font-family="Consolas, 'Courier New', monospace" fill="#1e1e1e" text-anchor="middle">where</text>
<text x="60.0" y="295.7" font-size="13" font-family="Segoe UI, Helvetica, Arial, sans-serif" fill="#c41e3a" text-anchor="start">≈ 30–40 µs · 8 launches · host↔device syncs · breaks torch.compile</text>
<polyline points="40.0,320.0 1060.0,320.0" fill="none" stroke="#e9ecef" stroke-width="2" stroke-linecap="round" stroke-linejoin="round" stroke-dasharray="6,6"/>
<text x="60.0" y="353.1" font-size="16" font-family="Segoe UI, Helvetica, Arial, sans-serif" fill="#2f9e44" text-anchor="start">AFTER · one kernel</text>
<rect x="60.0" y="375.0" width="240.0" height="90.0" rx="12" fill="#b2f2bb" stroke="#1e1e1e" stroke-width="2"/>
<text x="180.0" y="406.3" font-size="13" font-family="Consolas, 'Courier New', monospace" fill="#1e1e1e" text-anchor="middle">_expt_data_kernel</text>
<text x="180.0" y="422.5" font-size="13" font-family="Consolas, 'Courier New', monospace" fill="#1e1e1e" text-anchor="middle">static_range(E)</text>
<text x="180.0" y="438.8" font-size="13" font-family="Consolas, 'Courier New', monospace" fill="#1e1e1e" text-anchor="middle">prefix-sum in registers</text>
<polyline points="300.0,420.0 350.0,420.0" fill="none" stroke="#1e1e1e" stroke-width="2" stroke-linecap="round" stroke-linejoin="round"/>
<line x1="350.0" y1="420.0" x2="340.3" y2="414.8" stroke="#1e1e1e" stroke-width="2" stroke-linecap="round"/>
<line x1="350.0" y1="420.0" x2="340.3" y2="425.2" stroke="#1e1e1e" stroke-width="2" stroke-linecap="round"/>
<rect x="360.0" y="360.0" width="240.0" height="30.0" rx="12" fill="#a5d8ff" stroke="#1e1e1e" stroke-width="2"/>
<text x="480.0" y="377.5" font-size="13" font-family="Consolas, 'Courier New', monospace" fill="#1e1e1e" text-anchor="middle">ExptHist</text>
<rect x="360.0" y="398.0" width="240.0" height="30.0" rx="12" fill="#a5d8ff" stroke="#1e1e1e" stroke-width="2"/>
<text x="480.0" y="415.5" font-size="13" font-family="Consolas, 'Courier New', monospace" fill="#1e1e1e" text-anchor="middle">ExptOffs</text>
<rect x="360.0" y="436.0" width="240.0" height="30.0" rx="12" fill="#a5d8ff" stroke="#1e1e1e" stroke-width="2"/>
<text x="480.0" y="453.5" font-size="13" font-family="Consolas, 'Courier New', monospace" fill="#1e1e1e" text-anchor="middle">ExptOffsSum</text>
<rect x="360.0" y="474.0" width="240.0" height="30.0" rx="12" fill="#a5d8ff" stroke="#1e1e1e" stroke-width="2"/>
<text x="480.0" y="491.5" font-size="13" font-family="Consolas, 'Courier New', monospace" fill="#1e1e1e" text-anchor="middle">ExptData (packed map →)</text>
<rect x="650.0" y="375.0" width="380.0" height="90.0" rx="12" fill="#ffec99" stroke="#e8590c" stroke-width="2"/>
<text x="840.0" y="404.2" font-size="15" font-family="Segoe UI, Helvetica, Arial, sans-serif" fill="#1e1e1e" text-anchor="middle">≈ 2–3 µs · one launch · no sync</text>
<text x="840.0" y="422.9" font-size="15" font-family="Segoe UI, Helvetica, Arial, sans-serif" fill="#1e1e1e" text-anchor="middle">+14% TF geomean; up to +35% TF</text>
<text x="840.0" y="441.7" font-size="15" font-family="Segoe UI, Helvetica, Arial, sans-serif" fill="#1e1e1e" text-anchor="middle">on small 2048×2048 shapes</text>
</svg>